<?xml version="1.0" standalone="no"?>
<!DOCTYPE svg PUBLIC "-//W3C//DTD SVG 20010904//EN"
 >
<svg version="1.0" xmlns="http://www.w3.org/2000/svg"
 width="512.000000pt" height="512.000000pt" viewBox="0 0 512.000000 512.000000"
 preserveAspectRatio="xMidYMid meet">

<g transform="translate(0.000000,512.000000) scale(0.100000,-0.100000)"
fill="#000000" stroke="none">
<path d="M1185 4909 c-291 -39 -542 -171 -754 -395 -331 -350 -493 -890 -411
-1371 77 -448 282 -854 605 -1192 146 -153 1914 -1753 1928 -1744 39 24 1868
1666 1942 1744 452 474 688 1119 610 1664 -53 373 -198 677 -440 921 -196 198
-419 319 -675 365 -111 20 -365 17 -470 -5 -407 -87 -739 -340 -930 -708 l-45
-86 -53 102 c-186 360 -509 609 -897 692 -86 19 -316 26 -410 13z"/>
</g>
</svg>
